<svg xmlns="http://www.w3.org/2000/svg" viewBox="0 0 27.82 30.09"><g id="Layer_2" data-name="Layer 2"><g id="_ÎÓÈ_1" data-name="—ÎÓÈ_1"><path d="M13.79,30.09a3,3,0,0,1-3-2.94v-.37a16.71,16.71,0,0,0-2.84-8.67,7.16,7.16,0,0,1-1.16-4.82,7.24,7.24,0,0,1,6.35-6.35,8,8,0,0,1,.84-.05,7.14,7.14,0,0,1,4.81,1.84,7.24,7.24,0,0,1,2.4,5.39,7.13,7.13,0,0,1-1.29,4.12,16.55,16.55,0,0,0-3,8.91A3,3,0,0,1,13.79,30.09Zm.13-22.41a6.3,6.3,0,0,0-.75.05,6.42,6.42,0,0,0-5.65,5.65,6.32,6.32,0,0,0,1,4.3,17.47,17.47,0,0,1,3,9.07v.37a2.26,2.26,0,0,0,4.52,0,17.35,17.35,0,0,1,3.14-9.33,6.44,6.44,0,0,0-1-8.47A6.34,6.34,0,0,0,13.92,7.68Z"/><path d="M13.8,24.77a6.49,6.49,0,0,1-3-.7.39.39,0,0,1-.14-.54.4.4,0,0,1,.34-.2.46.46,0,0,1,.2.05,5.54,5.54,0,0,0,2.6.6,6.6,6.6,0,0,0,2.72-.61.29.29,0,0,1,.16,0,.39.39,0,0,1,.36.23.35.35,0,0,1,0,.3.36.36,0,0,1-.2.22A7.18,7.18,0,0,1,13.8,24.77Z"/><path d="M13.91,4.74a.39.39,0,0,1-.4-.39V.4a.4.4,0,0,1,.4-.4.39.39,0,0,1,.39.4v4A.38.38,0,0,1,13.91,4.74Z"/><path d="M7.63,7a.37.37,0,0,1-.3-.14l-2.54-3a.41.41,0,0,1,0-.56.43.43,0,0,1,.26-.09.37.37,0,0,1,.3.14l2.54,3a.4.4,0,0,1,0,.56A.38.38,0,0,1,7.63,7Z"/><path d="M4.29,12.82H4.22L.33,12.12A.38.38,0,0,1,0,11.67a.39.39,0,0,1,.38-.33H.46l3.9.68a.4.4,0,0,1-.07.79Z"/><path d="M2,21.37a.39.39,0,0,1-.2-.73l3.42-2a.35.35,0,0,1,.2-.05.39.39,0,0,1,.34.19.4.4,0,0,1,0,.3.37.37,0,0,1-.18.24l-3.43,2A.34.34,0,0,1,2,21.37Z"/><path d="M25.79,21.37a.37.37,0,0,1-.2-.05l-3.42-2A.34.34,0,0,1,22,19.1a.36.36,0,0,1,0-.3.39.39,0,0,1,.34-.19.35.35,0,0,1,.2.05l3.42,2a.39.39,0,0,1-.2.73Z"/><path d="M23.53,12.82a.4.4,0,0,1-.39-.33.4.4,0,0,1,.06-.3.48.48,0,0,1,.26-.16l3.89-.68h.07a.4.4,0,0,1,.39.33.38.38,0,0,1-.32.45l-3.89.69Z"/><path d="M20.19,7a.41.41,0,0,1-.26-.09.41.41,0,0,1-.05-.56l2.55-3a.37.37,0,0,1,.3-.14A.38.38,0,0,1,23,3.3a.4.4,0,0,1,.05.56l-2.54,3A.39.39,0,0,1,20.19,7Z"/></g></g></svg>