<svg xmlns="http://www.w3.org/2000/svg" viewBox="0 0 30.42 30.41"><g id="Layer_2" data-name="Layer 2"><g id="_ÎÓÈ_1" data-name="—ÎÓÈ_1"><path d="M9.84,24.65a1.1,1.1,0,0,1-.65-.21,1.08,1.08,0,0,1-.44-1.14L10,17.66a.1.1,0,0,0,0-.1L5.85,14.17A1.1,1.1,0,0,1,5.5,13a1.09,1.09,0,0,1,.94-.79l5.19-.59a.09.09,0,0,0,.07-.06l2.5-5.16a1.12,1.12,0,0,1,1-.63,1.1,1.1,0,0,1,1,.63l2.5,5.16s.05.06.08.06L24,12.2a1.09,1.09,0,0,1,.94.79,1.11,1.11,0,0,1-.36,1.18l-4.08,3.39a.11.11,0,0,0,0,.1l1.23,5.64a1.12,1.12,0,0,1-1.09,1.35,1.1,1.1,0,0,1-.58-.16l-4.74-2.85h-.1l-4.75,2.85A1,1,0,0,1,9.84,24.65Zm5.37-3.89a.46.46,0,0,1,.2,0l5,3a.34.34,0,0,0,.17.05.33.33,0,0,0,.19-.06.34.34,0,0,0,.13-.34l-1.29-5.92a.38.38,0,0,1,.13-.39l4.32-3.59a.33.33,0,0,0,.1-.35.32.32,0,0,0-.27-.23l-5.46-.62a.36.36,0,0,1-.31-.22L15.5,6.74a.31.31,0,0,0-.29-.19.33.33,0,0,0-.3.19l-2.61,5.4a.37.37,0,0,1-.31.22L6.53,13a.33.33,0,0,0-.28.24.32.32,0,0,0,.11.34l4.32,3.59a.4.4,0,0,1,.13.39L9.52,23.46a.32.32,0,0,0,.13.34.33.33,0,0,0,.19.06h0a.37.37,0,0,0,.17-.05l5-3A.54.54,0,0,1,15.21,20.76Z"/><path d="M15.21,30.41a15.21,15.21,0,1,1,15.21-15.2A15.22,15.22,0,0,1,15.21,30.41Zm0-29.62A14.42,14.42,0,1,0,29.62,15.21,14.44,14.44,0,0,0,15.21.79Z"/></g></g></svg>